<svg width="24" height="24" viewBox="0 0 24 24" fill="none" xmlns="http://www.w3.org/2000/svg">
<g clip-path="url(#clip0_4605_7202)">
<path d="M23.9999 9.72369V18.9997C23.9983 20.3253 23.471 21.5961 22.5337 22.5335C21.5963 23.4708 20.3255 23.9981 18.9999 23.9997H17.9999C17.7347 23.9997 17.4803 23.8943 17.2928 23.7068C17.1052 23.5193 16.9999 23.2649 16.9999 22.9997C16.9999 22.7345 17.1052 22.4801 17.2928 22.2926C17.4803 22.1051 17.7347 21.9997 17.9999 21.9997H18.9999C19.7955 21.9997 20.5586 21.6836 21.1212 21.121C21.6838 20.5584 21.9999 19.7953 21.9999 18.9997V9.72369C21.9999 9.23261 21.8794 8.74903 21.6489 8.31541C21.4184 7.88178 21.085 7.51137 20.6779 7.23669L13.6779 2.51369C13.1833 2.1765 12.5985 1.99615 11.9999 1.99615C11.4013 1.99615 10.8165 2.1765 10.3219 2.51369L3.32188 7.23669C2.9148 7.51137 2.58138 7.88178 2.35088 8.31541C2.12038 8.74903 1.99985 9.23261 1.99988 9.72369V18.9997C1.99988 19.7953 2.31595 20.5584 2.87856 21.121C3.44117 21.6836 4.20423 21.9997 4.99988 21.9997H5.99988C6.2651 21.9997 6.51945 22.1051 6.70699 22.2926C6.89453 22.4801 6.99988 22.7345 6.99988 22.9997C6.99988 23.2649 6.89453 23.5193 6.70699 23.7068C6.51945 23.8943 6.2651 23.9997 5.99988 23.9997H4.99988C3.67429 23.9981 2.40344 23.4708 1.4661 22.5335C0.528764 21.5961 0.0014697 20.3253 -0.000118153 18.9997V9.72369C-0.00114303 8.90541 0.198961 8.09942 0.582586 7.37663C0.966211 6.65385 1.5216 6.03643 2.19988 5.57869L9.19988 0.854692C10.0251 0.294645 10.9995 -0.00476074 11.9969 -0.00476074C12.9942 -0.00476074 13.9686 0.294645 14.7939 0.854692L21.7939 5.57869C22.4728 6.03619 23.0291 6.65341 23.4137 7.37613C23.7984 8.09886 23.9996 8.90498 23.9999 9.72369ZM18.9999 15.0067C19.0024 15.9262 18.8226 16.8371 18.4707 17.6866C18.1188 18.5361 17.6019 19.3073 16.9499 19.9557L13.4349 23.3937C13.0501 23.7663 12.5355 23.9746 11.9999 23.9746C11.4643 23.9746 10.9497 23.7663 10.5649 23.3937L7.05788 19.9637C6.24228 19.1506 5.63987 18.1489 5.30407 17.0473C4.96827 15.9457 4.90944 14.7783 5.13281 13.6485C5.35618 12.5187 5.85484 11.4615 6.58459 10.5706C7.31433 9.67968 8.25262 8.98257 9.31627 8.54106C10.3799 8.09955 11.5361 7.92729 12.6822 8.03955C13.8284 8.1518 14.9291 8.54511 15.8869 9.1846C16.8447 9.8241 17.6299 10.69 18.1729 11.7056C18.7159 12.7212 19 13.8551 18.9999 15.0067ZM16.9999 15.0067C16.9999 14.1845 16.7971 13.3749 16.4096 12.6498C16.022 11.9246 15.4616 11.3062 14.7779 10.8494C14.0943 10.3926 13.3085 10.1114 12.4903 10.0307C11.672 9.95009 10.8465 10.0725 10.0868 10.3871C9.32714 10.7017 8.65678 11.1988 8.13511 11.8343C7.61344 12.4699 7.25655 13.2243 7.09606 14.0307C6.93556 14.8371 6.97642 15.6706 7.21501 16.4575C7.4536 17.2443 7.88255 17.9602 8.46388 18.5417L11.9639 21.9637L15.5439 18.5337C16.0075 18.0711 16.3749 17.5212 16.6248 16.9159C16.8747 16.3105 17.0022 15.6616 16.9999 15.0067ZM14.9999 14.9997C14.9999 15.593 14.8239 16.1731 14.4943 16.6664C14.1646 17.1598 13.6961 17.5443 13.1479 17.7713C12.5998 17.9984 11.9966 18.0578 11.4146 17.9421C10.8327 17.8263 10.2981 17.5406 9.87856 17.121C9.459 16.7015 9.17328 16.1669 9.05753 15.585C8.94177 15.003 9.00118 14.3998 9.22824 13.8516C9.45531 13.3035 9.83982 12.8349 10.3332 12.5053C10.8265 12.1756 11.4065 11.9997 11.9999 11.9997C12.7955 11.9997 13.5586 12.3158 14.1212 12.8784C14.6838 13.441 14.9999 14.204 14.9999 14.9997Z" fill="#374957"/>
</g>
<defs>
<clipPath id="clip0_4605_7202">
<rect width="24" height="24" fill="white"/>
</clipPath>
</defs>
</svg>
