<svg width="24" height="24" viewBox="0 0 24 24" fill="none" xmlns="http://www.w3.org/2000/svg">
<path d="M17 17.9998L1 17.9998C0.734783 17.9998 0.480429 18.1051 0.292892 18.2927C0.105356 18.4802 0 18.7345 0 18.9998C0 19.265 0.105356 19.5193 0.292892 19.7069C0.480429 19.8944 0.734783 19.9998 1 19.9998L17 19.9998C17.2652 19.9998 17.5196 19.8944 17.7071 19.7069C17.8946 19.5193 18 19.265 18 18.9998C18 18.7345 17.8946 18.4802 17.7071 18.2927C17.5196 18.1051 17.2652 17.9998 17 17.9998Z" fill="#374957"/>
<path d="M1 13.0002L17 13.0002C17.2652 13.0002 17.5196 12.8949 17.7071 12.7073C17.8946 12.5198 18 12.2655 18 12.0002C18 11.735 17.8946 11.4807 17.7071 11.2931C17.5196 11.1056 17.2652 11.0002 17 11.0002L1 11.0002C0.734783 11.0002 0.480429 11.1056 0.292892 11.2931C0.105356 11.4807 0 11.735 0 12.0002C0 12.2655 0.105356 12.5198 0.292892 12.7073C0.480429 12.8949 0.734783 13.0002 1 13.0002Z" fill="#374957"/>
<path d="M1 6L17 6C17.2652 6 17.5196 5.89464 17.7071 5.70711C17.8946 5.51957 18 5.26521 18 4.99999C18 4.73478 17.8946 4.48042 17.7071 4.29288C17.5196 4.10535 17.2652 3.99999 17 3.99999L1 3.99999C0.734783 3.99999 0.480429 4.10535 0.292892 4.29288C0.105356 4.48042 0 4.73478 0 4.99999C0 5.26521 0.105356 5.51957 0.292892 5.70711C0.480429 5.89464 0.734783 6 1 6Z" fill="#374957"/>
<path d="M22 17C20.8954 17 20 17.8954 20 19C20 20.1046 20.8954 21 22 21C23.1046 21 24 20.1046 24 19C24 17.8954 23.1046 17 22 17Z" fill="#374957"/>
<path d="M22 9.99976C20.8954 9.99976 20 10.8952 20 11.9998C20 13.1043 20.8954 13.9998 22 13.9998C23.1046 13.9998 24 13.1043 24 11.9998C24 10.8952 23.1046 9.99976 22 9.99976Z" fill="#374957"/>
<path d="M22 3.00037C20.8954 3.00037 20 3.8958 20 5.00037C20 6.10494 20.8954 7.00037 22 7.00037C23.1046 7.00037 24 6.10494 24 5.00037C24 3.8958 23.1046 3.00037 22 3.00037Z" fill="#374957"/>
</svg>
